<svg width="19" height="18" viewBox="0 0 19 18" fill="none" xmlns="http://www.w3.org/2000/svg">
<path d="M9.13007 0C4.1592 0 0.129883 4.02932 0.129883 9.00019C0.129883 13.9711 4.1592 18.0004 9.13007 18.0004C14.1009 18.0004 18.1303 13.9711 18.1303 9.00019C18.1245 4.03162 14.0983 0.00575288 9.13007 0ZM9.13007 16.3639C5.06317 16.3639 1.76639 13.0671 1.76639 9.00019C1.76639 4.93329 5.06317 1.6365 9.13007 1.6365C13.197 1.6365 16.4938 4.93329 16.4938 9.00019C16.4892 13.0652 13.1951 16.3593 9.13007 16.3639Z" fill="black"/>
<path d="M9.94813 8.66121V5.72724C9.94813 5.27545 9.58186 4.90918 9.13007 4.90918C8.67828 4.90918 8.31201 5.27545 8.31201 5.72724V8.99986L8.31278 9.0037C8.31431 9.21924 8.40022 9.42558 8.5521 9.5786L10.8659 11.8928C11.1804 12.2173 11.6985 12.2249 12.023 11.9104C12.3475 11.5959 12.3551 11.0778 12.0406 10.7533C12.0349 10.7472 12.0291 10.7415 12.023 10.7357L9.9489 8.66121H9.94813Z" fill="black"/>
</svg>
