<?xml version="1.0" encoding="UTF-8"?>
<svg id="_图层_1" xmlns="http://www.w3.org/2000/svg" version="1.1" viewBox="0 0 935.4 212.6">
  <!-- Generator: Adobe Illustrator 29.5.0, SVG Export Plug-In . SVG Version: 2.1.0 Build 137)  -->
  <g>
    <path d="M116.3,37.5c2.8,8.2-8.7,10.9-14,13.1-1.8.8-3.7,1.5-5.5,2.4-1.2.6-2.4,1.4-3.6,1.9-1.2.5-2.5.7-3.8.9-2.8.6-5.7,1.3-8.5,2.1-5.6,1.5-11.2,3.2-16.8,4.8-3.2.9-6.4,1.8-9.6,2.6-3.4.8-6.9,0-9.8-1.8-2.8-1.6-2.9-4.2-4.2-6.8-.6-1.3-.5-2.8.7-3.8.3-.3,1.7-.2,2.2-.3.7,0,1.5-.2,2.2-.3,1.5-.2,2.9-.5,4.3-.7,1.5-.2,2.9-.4,4.4-.5,1.6,0,2.9.3,4.3-.7,1.5-1,2.9-2,4.6-2.7,3.2-1.4,6.6-2.2,10-2.8,1.2-.2,2.4-.3,3.6-.5.6,0,1.3,0,1.9-.1.7-.2.9-.6,1.5-1.1,1.2-.9,2.9-1,4.1-1.9,3.5-2.8,8.1-3.8,10.9-7.3,2-1.7,4.6-2.3,7.1-2.5,2.7-.1,5.4-.3,7.8,1,2.3,1.2,5,2.4,5.9,5.1"/>
    <path d="M211.3,80.3c.4-1.3.7-2.7.7-4.1s-.8-2.7-.9-4.1c0-1.1.6-2.4-.8-3-2.8-2-5.3,1.2-8.1,1.6-2.3,1.1-4,3.1-5.9,4.7-1.3,1.1-3,1.7-4.4,2.7-1.4.9-2.4,2.2-3.8,3.2-2.9,2.1-6.2,3.5-9.2,5.5-2.5,1.7-8.2,1-10.9.5-5-1-9.4-3.4-14.1-5.3-2-.8-4.2-1.5-6-2.7-2.1-1.4-3.3-3.8-5.5-5.2-1.9-1.3-3.9-2.4-3.3-5.1,1.7-1.8,4.2-2.2,6.5-2.8,8-1.5,16.7-.3,24.4-3,4.4-1.2,9-2.2,13.3-3.7,1.1-.4,2.3-1,3.5-1.4,1.3-.4,2.1-1.4,3.3-2,2.7-1.3,5.5-.6,8.2-1.3,3.8-1,7.5-2.2,11.2-3.4,2.2-.7,4.3-1.6,6.5-2.1,1.8-.4,3.6-.4,5.2-1.4,3.8-2.5,8.6-1.4,12.7-3.2,3.4-1.5,7.3-3,10.9-3.9,1.9-.5,3.9-.7,5.8-.4,3.3.4,6.7,1.2,9.9,1.9,2.8.6,5.6,1,8.1,2.4,1.4.8,2.4,1.9,3.1,3.4.2,1.8-.4,3.5-1.2,5.1-.4.8-.9,1.6-1.3,2.4-1.4,2.5-3.6,3.1-6.3,3.8s-5.4,1-8,.3c-1.4-.3-2.9-1-4-1.9-4.6-2.9-10.2-2.1-15.2-.8-.7.2-1.4.4-2,.6-.7.2-1.4.4-2,.8-.6.5-1.2.8-1.8,1.2-1.7.9-3.1,1.7-3.1,3.7,0,2.4-.4,5.2.6,7.6,2.2,4.6-.7,9.3,1.4,13.9.9,6.2,2.8,15,2.6,22.2,0,10,.8,22.4,2.4,31.9.4,2.2,1.1,4.4,1.6,6.6.3,1.4.4,2.8.7,4.1.7,2.9,1.4,5.1,1.3,8.2-.1,3.5-.6,7-1.1,10.4-.6,3.8-1.7,7.6-5.5,9.2-3.7,4.1-10.3,3.3-15.1,1.7-2-.7-4.6-3.6-5.6-5.4-.6-1.1-.5-2.5-.8-3.7-.7-3.2-2.1-6.2-1-9.5,2.3-26.6,4.6-51.9,3.2-78.4"/>
    <path d="M81.8,69c2.3,2.6,3.4,5.6,4.8,8.6,1.2,1.3,2.7,1.2,4.2.7,1.3-.5,2.8-.7,3.9-1.6,1.1-.9,2.1-2.1,3.1-3.1,2.3-2.1,4.8-4,7.8-5,1.8-.6,3.6-.8,5.5-.7,3,1.2,6.8,1,8.3,4.2,1.4,2,1,4.3.3,6.4-2.7,5.4-9.3,7.4-13.9,10.9-3.7,2-8.7,3.4-10.5,7.5-.1,6.6,5.2,11.9,9.4,15.8,6.4,6.6,12.3,16.7,20.8,20.6,2.5,1.2,4.6,3.5,6.8,5.3,1.2.9,2.4,1.9,3.7,2.6,1.4.8,3,1.1,4.4,2.1,1.4.9,3.2,1.4,4.4,2.7.4.5,1.2.6,1.8,1,1.2.7,2.1,2,3.5,2.3.8.2,1.5,0,2.3.3.8.3,1.4,1,2.1,1.4,3.2,2.1,6.5,4.1,10.2,5.4,1.4.5,2.9.6,4.3,1.1,1.3.5,2.2,1.6,3.4,2.4,2,1.4,4.6,2.6,5.6,5,.6,1.6-.2,3.9-1.2,5.1-1.4,1.7-4.1,2.2-6.1,2.5-2.1.3-4.3,1.3-6.4,1.6-1.2.1-2.4.1-3.6.2-2.5.2-5.1.4-7.6.7-5.1.5-10.3,1.1-15.4,1-2.8,0-6.1.4-8.7-1.1-3.5-2-6.6-5-9.8-7.4-4.2-3.2-7-7.6-10-11.9-3.1-4.5-6.1-9.1-9.3-13.6-2.6-3.6-5.1-7.8-8.6-10.6-1.2-1-2-2.4-3.2-3.4-1.1-.9-2-1.9-2.9-2.9-1.9-2.1-3.8-4-6.8-4.2-1.1,1.6-1.8,3.5-2.3,5.4-.3,1.3-.2,2.6-.5,4-.2,1.1-.6,2.1-.8,3.2-.4,2.4-.5,4.9-1.7,7.1-.7,1.3-1.1,2.4-1.5,3.8-.3,1.4-1.1,3-1.6,4.3-.3.8-.8,1.4-1.2,2.2-.6,1.4-1,2.9-1.7,4.3-.8,1.5-1.7,3.1-2.7,4.5-1.9,2.9-4.2,5.6-6.6,8.1-1.4,1.4-2.8,2.8-4.3,4.1-1.2,1-2.1,2.2-3.5,2.9-1.4.8-2.9,1.1-4.4,1.6-3.2,1-6.1,2.4-9.5,2.6-2,0-4-.5-5.7-1.4-.8-.4-2.1-.4-2.9-.7-1-.4-2-.9-2.8-1.5-1-.7-2-1.5-2.7-2.5-.4-.6-.7-1.1-.8-1.8-.2-1.4,0-1.9-.8-3.1-1.1-1.5-.5-2.5-.9-4.2-.2-.8-.5-1.6-.6-2.4-.1-1.3,1-2.4,1.8-3.4.8-1.1,1.5-2.3,2.9-2.7,1.5-.5,3.7-.5,5.3-.1.9.2,1.8.5,2.6,1,1.3.8,1.8,2,3.4,1,1.2-.7,1.9-2,2.9-2.9.8-.7,1.1-1.8,1.9-2.6.9-.9,1.7-1.7,2.4-2.7,1.5-2,2.7-4.2,3.5-6.6,4.2-4.4,4.6-10.6,3-16.7-4.3-.3-8.8,1.9-13.3.4-3-2.2-7.4-3.4-8.9-6.7-2.1-2.2-3.8-5-4.2-8.1,1.3-3.5,6.1-2.4,8.9-3,2.5-1,5.6-1.3,8.1-2.6,1.4-.7,3.1-.9,4.6-1.7,1.5-.8,2.8-1.7,4.2-2.6,1.4-.9,2.8-1.8,4.2-2.5,1.6-.7,3.4-.9,4.9-1.8,1.3-.7,2.6-1.7,3.7-2.7,2.4-2,4.3-4.8,3.9-8.1-.1-1.1-.7-2.1-.7-3.3,0-1.2.2-2.4.5-3.5.2-1.2.5-2.3.7-3.5.2-1.8-.2-3,.8-4.6.9-1.4,2.3-2.6,3.9-3.2,1.3-.5,2.8-.2,4.2-.2s2.4-.8,3.5-.4c.6.2,1.1.8,1.8.9.8.2,1.6.2,2.2.7"/>
    <path d="M286.4,103.2c-1.4-1.6-2.8-2.5-3.6-2.9-.2,0-.4-.2-.5-.3h0c-.9-.5-1.7-1.2-2.7-1.4-1.5-.4-3-.2-4.5-.5-2.1-.4-4.2-1-6.3-1.3-2.6-.4-5.4-.5-7.9.3-1.2.3-2.5.8-3.4,1.7-.7.8-.7,1.7-.9,2.6-.2.9-.3,1.8-.3,2.7,0,3.4,1.3,6.8,3,9.7.9,1.6,2,3,3.1,4.4,1.1,1.2,2.3,2.9,3.7,3.8,1.4.9,2.3,1.6,3.1,2.9.6,1,.7,1.3,1.8,1.7,1.9.7,4,.7,6,.8,2.6.2,5.4.2,7.9-.2,1.9-.3,2.3-1.7,3.9-2.6,1.5-.9,2.2-1,2.9-2.6,3.1-7.3-.7-13.5-5.2-18.8"/>
  </g>
  <g>
    <path d="M446.9,151.8h-60v14.8c0,6.8-1.5,10.2-6.9,12-5.6,2-13.4,2-25.5,2-.8-3.7-2.8-8.8-4.6-12.2,8.5.3,17.4.3,19.8.3s3.2-.6,3.2-2.6v-14.4h-63.3v-11.7h63.3v-5.6c6.8-2.8,14.4-6.5,20.8-10.5h-55.2v-10.5h69.9l3.1-.8,8.2,7.4c-9,6.9-21,13.6-32.7,18.7v1.2h60v11.7h0ZM326.2,123.6h-13.6v-29.5h11.7l-2.8-45.7c9-1.5,22.2-5.4,30.2-7.9l6.2,8.5c-6.6,2.5-15,4.6-22.7,6l.5,6.2h21.1v9.3h-20.7l.5,7.1h20.8v9.1c4.3-2,9-4.5,13-7.3-3.2-2-6.8-4-10-5.6l6.9-6c3.4,1.7,7.2,3.7,10.8,5.9,2.8-2.5,5.1-4.9,6.9-7.6l9.7,3.1c-2.5,3.2-5.2,6.3-8.5,9.4,4.2,2.8,7.6,5.4,10.2,7.9l-7.2,6.6c-2.5-2.5-6-5.2-10.3-8.2-4.5,3.6-9.4,6.5-13.9,9.1h53.9c.1-2.3.5-4.6.8-7.1h-20.5v-9.4h21.1l.6-7.1h-21v-9.3h21.6l.3-6.9h-22.7v-9.4h36.7c-.8,15.6-2.2,35.3-3.4,49.2h11.7v29.5h-14.2v-18.7h-103.9v18.7h0ZM337.8,94.1h26.4c-1.5-2-5.1-5.6-7.2-7.1h-19.4l.3,7.1h0ZM388.9,65.7c-2.3-2.3-5.7-4.8-9.6-7.3-4.3,3.2-9,6.3-13.3,8.5-1.7-1.5-5.4-5.1-7.9-6.6,4.3-1.8,8.8-4.3,12.6-7.1-3.1-1.8-6.5-3.7-9.7-5.1l6.9-6c3.2,1.5,6.9,3.4,10.3,5.4,2.6-2.2,4.8-4.6,6.5-6.8l9.7,2.6c-2.3,3.1-4.9,6.2-8,9.1,3.7,2.3,6.9,4.6,9.4,6.8l-7.1,6.5h0Z"/>
    <path d="M506,90.8c-13.1,5.4-26.5,11.3-37.5,15.6l-5.4-11.7c10.5-3.4,25.6-8.8,40.7-14.2l2.2,10.3h0ZM540.6,105.7c-2.2,4-4.3,8-6.5,11.7h49.7v63.9h-15v-5.7h-70.5v5.7h-14.4v-63.9h36.1c1.7-3.9,3.4-8,4.5-11.7-.8.9-1.8,1.7-3.2,2.3-4.3,1.9-10.8,1.7-20.2,1.7-.6-3.2-2.2-7.4-3.7-10.5,6.2.2,12,.2,13.9.2s2.5-.6,2.5-2.2v-39.2h-46.6v-11.3h59.7v50.5c0,2.6-.3,4.6-.8,6.2l14.5,2.3ZM492.1,81.1c-3.9-4.5-12.5-10.5-19.6-14.5l7.1-8.3c7.1,3.6,15.9,9.3,19.9,13.7,0,0-7.4,9.1-7.4,9.1ZM568.8,128.3h-70.5v12.4h70.5v-12.4ZM568.8,164.3v-12.7h-70.5v12.7h70.5ZM531.9,91.6c11-3.4,27-8.8,42.6-14.3l2.3,10.5c-13.7,5.2-28.4,10.7-40,14.8l-4.9-11h0ZM595.7,97c0,6.3-1.4,9.4-6,11.4-4.5,1.9-11.4,1.9-21.5,1.9-.6-3.4-2.2-8-3.9-11.3,6.5.3,13.3.3,15.3.3,2-.2,2.5-.6,2.5-2.3v-39.1h-46.3v-11.3h59.9v50.3h0ZM559.6,80.8c-4.2-4.3-13-10.3-20.2-14.3l7.1-8.3c7.1,3.4,16.2,8.9,20.5,13.4l-7.4,9.3h0Z"/>
  </g>
  <g>
    <polygon points="684 132 684 157 768.7 133.6 768.7 181.3 792.7 181.3 792.7 133.6 877.2 157 877.2 132 780.7 105.8 684 132"/>
    <rect x="644.9" y="92.8" width="39.2" height="39.2"/>
    <rect x="877.2" y="92.8" width="39.2" height="39.2"/>
    <polygon points="792.7 88.1 792.7 40.5 768.7 40.5 768.7 88.1 684 68.2 684 92.8 747.7 107.9 780.7 99.8 813.6 107.8 877.2 92.8 877.2 68.2 792.7 88.1"/>
  </g>
</svg>